<svg xmlns="http://www.w3.org/2000/svg" xmlns:xlink="http://www.w3.org/1999/xlink" width="500" zoomAndPan="magnify" viewBox="0 0 375 374.999991" height="500" preserveAspectRatio="xMidYMid meet" version="1.0"><defs><g/><clipPath id="eaef060d28"><path d="M 292.140625 196.992188 L 306.097656 196.992188 L 306.097656 209.171875 L 292.140625 209.171875 Z M 292.140625 196.992188 " clip-rule="nonzero"/></clipPath></defs><g fill="#fffaf3" fill-opacity="1"><g transform="translate(43.736545, 209.957271)"><g><path d="M 34.578125 -31.84375 L 52.234375 -31.84375 L 52.234375 0 L 2.734375 0 L 2.734375 -63.703125 L 34.578125 -63.703125 Z M 34.578125 -31.84375 "/></g></g></g><g fill="#fffaf3" fill-opacity="1"><g transform="translate(98.425189, 209.957271)"><g><path d="M 34.859375 -65.890625 C 39.523438 -65.890625 43.90625 -65.007812 48 -63.25 C 52.09375 -61.488281 55.703125 -59.046875 58.828125 -55.921875 C 61.953125 -52.796875 64.394531 -49.1875 66.15625 -45.09375 C 67.914062 -41 68.796875 -36.613281 68.796875 -31.9375 C 68.796875 -27.269531 67.914062 -22.890625 66.15625 -18.796875 C 64.394531 -14.703125 61.953125 -11.09375 58.828125 -7.96875 C 55.703125 -4.84375 52.09375 -2.398438 48 -0.640625 C 43.90625 1.117188 39.523438 2 34.859375 2 C 30.179688 2 25.796875 1.117188 21.703125 -0.640625 C 17.609375 -2.398438 14 -4.84375 10.875 -7.96875 C 7.75 -11.09375 5.304688 -14.703125 3.546875 -18.796875 C 1.785156 -22.890625 0.90625 -27.269531 0.90625 -31.9375 C 0.90625 -36.613281 1.785156 -41 3.546875 -45.09375 C 5.304688 -49.1875 7.75 -52.796875 10.875 -55.921875 C 14 -59.046875 17.609375 -61.488281 21.703125 -63.25 C 25.796875 -65.007812 30.179688 -65.890625 34.859375 -65.890625 Z M 34.859375 -65.890625 "/></g></g></g><g fill="#fffaf3" fill-opacity="1"><g transform="translate(168.583167, 209.957271)"><g><path d="M 33.3125 -63.703125 C 36.882812 -63.703125 40.234375 -63.035156 43.359375 -61.703125 C 46.484375 -60.367188 49.242188 -58.515625 51.640625 -56.140625 C 54.035156 -53.773438 55.898438 -51.015625 57.234375 -47.859375 C 58.566406 -44.710938 59.234375 -41.347656 59.234375 -37.765625 C 59.234375 -33.640625 58.335938 -29.816406 56.546875 -26.296875 C 54.765625 -22.773438 52.359375 -19.832031 49.328125 -17.46875 L 58.6875 0.09375 L 2.734375 0.09375 C 2.734375 -7.726562 2.734375 -14.128906 2.734375 -19.109375 C 2.734375 -24.085938 2.734375 -27.984375 2.734375 -30.796875 C 2.734375 -33.617188 2.734375 -35.664062 2.734375 -36.9375 C 2.734375 -38.21875 2.734375 -39.039062 2.734375 -39.40625 C 2.734375 -39.769531 2.734375 -39.992188 2.734375 -40.078125 C 2.734375 -40.171875 2.734375 -40.457031 2.734375 -40.9375 C 2.734375 -41.425781 2.734375 -42.414062 2.734375 -43.90625 C 2.734375 -45.394531 2.734375 -47.703125 2.734375 -50.828125 C 2.734375 -53.953125 2.734375 -58.242188 2.734375 -63.703125 Z M 33.3125 -63.703125 "/></g></g></g><g fill="#fffaf3" fill-opacity="1"><g transform="translate(228.822573, 209.957271)"><g><path d="M 2.640625 -63.796875 L 55.421875 -63.796875 L 55.421875 -42.3125 L 42.21875 -42.3125 L 42.21875 -39.578125 L 55.421875 -39.578125 L 55.421875 -24.296875 L 42.21875 -24.296875 L 42.21875 -21.5625 L 55.421875 -21.5625 L 55.421875 -0.09375 L 2.640625 -0.09375 Z M 2.640625 -63.796875 "/></g></g></g><g clip-path="url(#eaef060d28)"><path fill="#fffaf3" d="M 292.140625 196.992188 L 306.082031 196.992188 L 306.082031 209.171875 L 292.140625 209.171875 Z M 292.140625 196.992188 " fill-opacity="1" fill-rule="nonzero"/></g><g fill="#000000" fill-opacity="1"><g transform="translate(232.54389, 194.816743)"><g><path d="M 3.921875 -2.96875 C 4.628906 -2.78125 4.984375 -2.335938 4.984375 -1.640625 C 4.984375 -1.171875 4.832031 -0.800781 4.53125 -0.53125 C 4.238281 -0.257812 3.882812 -0.09375 3.46875 -0.03125 C 3.289062 -0.0078125 3.035156 0 2.703125 0 L 0.703125 0 L 0.703125 -5.5 L 2.671875 -5.5 C 2.960938 -5.5 3.203125 -5.488281 3.390625 -5.46875 C 3.828125 -5.414062 4.164062 -5.265625 4.40625 -5.015625 C 4.644531 -4.773438 4.765625 -4.46875 4.765625 -4.09375 C 4.765625 -3.539062 4.484375 -3.164062 3.921875 -2.96875 Z M 1.8125 -4.640625 L 1.8125 -3.25 L 2.640625 -3.25 C 2.773438 -3.25 2.90625 -3.253906 3.03125 -3.265625 C 3.425781 -3.328125 3.625 -3.554688 3.625 -3.953125 C 3.625 -4.335938 3.414062 -4.554688 3 -4.609375 C 2.875 -4.628906 2.742188 -4.640625 2.609375 -4.640625 Z M 3.125 -0.875 C 3.332031 -0.894531 3.5 -0.96875 3.625 -1.09375 C 3.757812 -1.226562 3.828125 -1.410156 3.828125 -1.640625 C 3.828125 -2.097656 3.585938 -2.351562 3.109375 -2.40625 C 2.984375 -2.414062 2.851562 -2.421875 2.71875 -2.421875 L 1.8125 -2.421875 L 1.8125 -0.875 L 2.765625 -0.875 C 2.941406 -0.875 3.0625 -0.875 3.125 -0.875 Z M 3.125 -0.875 "/></g></g></g><g fill="#000000" fill-opacity="1"><g transform="translate(237.776375, 194.816743)"><g><path d="M 4.671875 -0.875 L 4.671875 0 L 0.703125 0 L 0.703125 -5.5 L 4.59375 -5.5 L 4.59375 -4.640625 L 1.8125 -4.640625 L 1.8125 -3.1875 L 4.40625 -3.1875 L 4.40625 -2.3125 L 1.8125 -2.3125 L 1.8125 -0.875 Z M 4.671875 -0.875 "/></g></g></g><g fill="#000000" fill-opacity="1"><g transform="translate(232.54389, 204.054507)"><g><path d="M 3.0625 -5.609375 C 3.78125 -5.609375 4.34375 -5.429688 4.75 -5.078125 C 5.15625 -4.734375 5.382812 -4.28125 5.4375 -3.71875 L 5.453125 -3.640625 L 4.34375 -3.640625 L 4.328125 -3.71875 C 4.191406 -4.4375 3.765625 -4.796875 3.046875 -4.796875 C 2.597656 -4.796875 2.238281 -4.613281 1.96875 -4.25 C 1.695312 -3.894531 1.5625 -3.40625 1.5625 -2.78125 C 1.5625 -2.113281 1.695312 -1.597656 1.96875 -1.234375 C 2.238281 -0.878906 2.59375 -0.703125 3.03125 -0.703125 C 3.382812 -0.703125 3.664062 -0.800781 3.875 -1 C 4.09375 -1.195312 4.238281 -1.472656 4.3125 -1.828125 L 4.328125 -1.90625 L 5.421875 -1.90625 L 5.40625 -1.828125 C 5.351562 -1.234375 5.109375 -0.757812 4.671875 -0.40625 C 4.242188 -0.0625 3.679688 0.109375 2.984375 0.109375 C 2.210938 0.109375 1.585938 -0.144531 1.109375 -0.65625 C 0.640625 -1.164062 0.40625 -1.851562 0.40625 -2.71875 C 0.40625 -3.601562 0.65625 -4.304688 1.15625 -4.828125 C 1.65625 -5.347656 2.289062 -5.609375 3.0625 -5.609375 Z M 3.0625 -5.609375 "/></g></g></g><g fill="#000000" fill-opacity="1"><g transform="translate(238.262188, 204.054507)"><g><path d="M 4.6875 -1.390625 C 4.757812 -0.734375 4.894531 -0.269531 5.09375 0 L 3.890625 0 C 3.753906 -0.363281 3.664062 -0.773438 3.625 -1.234375 C 3.539062 -1.847656 3.289062 -2.171875 2.875 -2.203125 C 2.769531 -2.210938 2.628906 -2.21875 2.453125 -2.21875 L 1.8125 -2.21875 L 1.8125 0 L 0.703125 0 L 0.703125 -5.5 L 2.71875 -5.5 C 3.019531 -5.5 3.285156 -5.484375 3.515625 -5.453125 C 3.953125 -5.398438 4.300781 -5.253906 4.5625 -5.015625 C 4.820312 -4.785156 4.953125 -4.445312 4.953125 -4 C 4.953125 -3.65625 4.851562 -3.367188 4.65625 -3.140625 C 4.46875 -2.921875 4.207031 -2.757812 3.875 -2.65625 C 4.351562 -2.476562 4.625 -2.054688 4.6875 -1.390625 Z M 1.8125 -3.03125 L 2.5625 -3.03125 C 2.78125 -3.03125 2.929688 -3.035156 3.015625 -3.046875 C 3.535156 -3.085938 3.796875 -3.347656 3.796875 -3.828125 C 3.796875 -4.078125 3.734375 -4.257812 3.609375 -4.375 C 3.484375 -4.5 3.304688 -4.578125 3.078125 -4.609375 C 2.953125 -4.628906 2.796875 -4.640625 2.609375 -4.640625 L 1.8125 -4.640625 Z M 1.8125 -3.03125 "/></g></g></g><g fill="#000000" fill-opacity="1"><g transform="translate(243.470776, 204.054507)"><g><path d="M 4.671875 -0.875 L 4.671875 0 L 0.703125 0 L 0.703125 -5.5 L 4.59375 -5.5 L 4.59375 -4.640625 L 1.8125 -4.640625 L 1.8125 -3.1875 L 4.40625 -3.1875 L 4.40625 -2.3125 L 1.8125 -2.3125 L 1.8125 -0.875 Z M 4.671875 -0.875 "/></g></g></g><g fill="#000000" fill-opacity="1"><g transform="translate(248.37673, 204.054507)"><g><path d="M 3.6875 -1.65625 L 1.84375 -1.65625 L 1.296875 0 L 0.125 0 L 2.109375 -5.5 L 3.484375 -5.5 L 5.421875 0 L 4.234375 0 Z M 2.765625 -4.5625 L 2.125 -2.53125 L 3.40625 -2.53125 Z M 2.765625 -4.5625 "/></g></g></g><g fill="#000000" fill-opacity="1"><g transform="translate(253.760536, 204.054507)"><g><path d="M 5.015625 -4.640625 L 3.140625 -4.640625 L 3.140625 0 L 2.046875 0 L 2.046875 -4.640625 L 0.1875 -4.640625 L 0.1875 -5.5 L 5.015625 -5.5 Z M 5.015625 -4.640625 "/></g></g></g><g fill="#000000" fill-opacity="1"><g transform="translate(258.722234, 204.054507)"><g><path d="M 1.8125 0 L 0.703125 0 L 0.703125 -5.5 L 1.8125 -5.5 Z M 1.8125 0 "/></g></g></g><g fill="#000000" fill-opacity="1"><g transform="translate(261.047786, 204.054507)"><g><path d="M 3.578125 0 L 2.203125 0 L 0.25 -5.5 L 1.453125 -5.5 L 2.90625 -0.84375 L 4.390625 -5.5 L 5.5625 -5.5 Z M 3.578125 0 "/></g></g></g><g fill="#000000" fill-opacity="1"><g transform="translate(266.527161, 204.054507)"><g><path d="M 4.671875 -0.875 L 4.671875 0 L 0.703125 0 L 0.703125 -5.5 L 4.59375 -5.5 L 4.59375 -4.640625 L 1.8125 -4.640625 L 1.8125 -3.1875 L 4.40625 -3.1875 L 4.40625 -2.3125 L 1.8125 -2.3125 L 1.8125 -0.875 Z M 4.671875 -0.875 "/></g></g></g></svg>